# xmcd
#
# Track frame offsets: 
#        150
#        17242
#        32781
#        53192
#        70930
#        88401
#        104393
#        121633
#        140769
#        159998
#        175061
#        197108
#        212316
#        227835
#        252562
#        268562
#        286314
#        306677
#        323126
#        340177
#
# Disc length: 4778 seconds
#
# Revision: 0
# Processed by: cddbd v1.5.2PL0 Copyright (c) Steve Scherf et al.
# Submitted via: ExactAudioCopy v0.90b4
#
DISCID=2b12a814
DTITLE=Various Artist - R&B Lovesongs 2007 - CD2
DYEAR=2007
DGENRE=R&B
TTITLE0=Rhianna - Unfaithful
TTITLE1=Ne-Yo - So Sick
TTITLE2=The Pussycat Dolls - Don't Cha
TTITLE3=Pink - Nobody Knows
TTITLE4=Shakira - Illegal
TTITLE5=Chris Brown - Yo (Excuse Me Miss)
TTITLE6=Jagged Edge - Let's Get Married
TTITLE7=Bobby Brown - Don't Be Cruel
TTITLE8=Heavy D and The Boyz feat. Aaron Hall - Now That We Found Love
TTITLE9=Chaka Demus and Pliers - Tease Me
TTITLE10=Jodeci - Freek 'N You
TTITLE11=Mya - My Love Is Like ... Wo
TTITLE12=Luther Vandross - So Amazing
TTITLE13=Boyz II Men - On Bended Knee
TTITLE14=R.Kelly - If I Could Turn Back The Hands Of Time
TTITLE15=En Vogue - My Lovin' (You're Never Gonnna Get It)
TTITLE16=Anita Baker - Caught Up In The Rapture
TTITLE17=Black Eyed Peas - Don't Lie
TTITLE18=Michael Jackson - Ain't No Sunshine
TTITLE19=Marvin Gaye - Sexual Healing
EXTD=
EXTT0=
EXTT1=
EXTT2=
EXTT3=
EXTT4=
EXTT5=
EXTT6=
EXTT7=
EXTT8=
EXTT9=
EXTT10=
EXTT11=
EXTT12=
EXTT13=
EXTT14=
EXTT15=
EXTT16=
EXTT17=
EXTT18=
EXTT19=
PLAYORDER=
